<?xml version="1.0" encoding="UTF-8"?>
<svg id="Layer_2" data-name="Layer 2" xmlns="http://www.w3.org/2000/svg" xmlns:xlink="http://www.w3.org/1999/xlink" viewBox="0 0 776.01 288.24">
  <defs>
    <style>
      .cls-1 {
        fill: #f6a9b8;
      }

      .cls-2 {
        fill: #fff;
      }

      .cls-3 {
        fill: #20386b;
      }

      .cls-4 {
        fill: none;
      }

      .cls-5 {
        fill: #fffcfa;
      }

      .cls-6 {
        fill: #f7a9b8;
      }

      .cls-7 {
        clip-path: url(#clippath-1);
      }

      .cls-8 {
        fill: #f6a8b8;
      }

      .cls-9 {
        fill: #f4a8b7;
      }

      .cls-10 {
        fill: #62cdf6;
      }

      .cls-11 {
        fill: #66caf1;
      }

      .cls-12 {
        fill: #5786c5;
      }

      .cls-13 {
        clip-path: url(#clippath);
      }

      .cls-14 {
        fill: #22396b;
      }
    </style>
    <clipPath id="clippath">
      <rect class="cls-4" x="254.73" y="123" width="369.13" height="119.37"/>
    </clipPath>
    <clipPath id="clippath-1">
      <rect class="cls-4" x="254.73" y="159.07" width="369.13" height="52.81"/>
    </clipPath>
  </defs>
  <g id="Layer_5" data-name="Layer 5">
    <rect class="cls-4" width="776.01" height="113.28"/>
    <g>
      <polygon class="cls-11" points="750.57 0 123.44 104.9 0 68.75 0 0 750.57 0"/>
      <polygon class="cls-9" points="380.47 0 123.44 104.9 0 1.6 0 0 380.47 0"/>
      <polygon class="cls-5" points="204.83 0 123.44 104.9 60.13 0 204.83 0"/>
    </g>
  </g>
  <g>
    <g>
      <path class="cls-11" d="M310.32,155.03h-24.08v-37.47c-4.62.05-8.67.36-12.15.94-3.48.57-6.39,1.61-8.72,3.11v-21.11h65.9v21.11c-2.43-1.51-5.37-2.54-8.83-3.11-3.45-.57-7.49-.89-12.11-.94v37.47h-.01Z"/>
      <path class="cls-11" d="M335.49,100.5h48.95c3.15,0,6.02.84,8.61,2.52,2.6,1.69,4.68,3.95,6.25,6.8s2.36,5.98,2.36,9.4-.78,6.55-2.36,9.4c-1.57,2.86-3.66,5.12-6.25,6.8-2.6,1.69-5.47,2.52-8.61,2.52,2.95,0,5.74.73,8.36,2.21,2.61,1.48,4.73,3.48,6.33,6.02,1.6,2.54,2.39,5.44,2.39,8.7h-28.09c0-3.32-.81-6.25-2.43-8.82-1.61-2.56-3.73-4.56-6.32-5.98s-5.4-2.13-8.4-2.13v16.93h-20.8v-54.38h.01ZM356.29,124.35h19.8c.9,0,1.69-.36,2.36-1.09.67-.72,1-1.58,1-2.56,0-1.04-.33-1.92-1-2.65-.67-.72-1.45-1.08-2.36-1.08h-19.8v7.38h0Z"/>
      <path class="cls-11" d="M453.69,100.5c3.1,10.15,6.4,19.71,9.9,28.73s7.14,17.73,10.9,26.14h-28.8c0-2.24-.56-4.26-1.68-6.03-1.11-1.77-2.57-3.18-4.36-4.19-1.79-1.02-3.7-1.53-5.75-1.53v11.76h-28.81c3.82-8.41,7.48-17.13,10.98-26.14,3.5-9.02,6.78-18.59,9.82-28.73h27.8,0ZM436.33,132.41h7.01c0-.94.05-1.86.14-2.74.05-.68.07-1.33.07-1.96,0-.47-.02-.91-.07-1.33-.05-.99-.33-1.81-.85-2.43-.53-.63-1.45-.94-2.79-.94s-2.33.31-2.86.94-.8,1.28-.82,1.96c-.03.68-.04,1.23-.04,1.65,0,.68.02,1.39.07,2.11.1.89.14,1.81.14,2.74h0Z"/>
      <path class="cls-11" d="M478.24,155.03v-54.53h24.16c0,2.34.64,4.87,1.9,7.59,1.26,2.73,2.85,5.29,4.75,7.68,1.91,2.39,3.87,4.37,5.9,5.96,2.02,1.58,3.8,2.37,5.32,2.37v-23.6h24.08v54.53h-24.08c0-3.48-.85-6.54-2.53-9.19-1.69-2.65-3.91-4.73-6.65-6.23-2.74-1.5-5.63-2.26-8.69-2.26v17.68h-24.16Z"/>
      <path class="cls-11" d="M565.95,206.16v-39.04h15.09c0,1.68.4,3.48,1.19,5.44s1.77,3.78,2.97,5.49c1.19,1.71,2.42,3.13,3.69,4.27s2.37,1.7,3.32,1.7v-16.9h15.05v39.04h-15.05c0-2.49-.52-4.69-1.58-6.58s-2.44-3.39-4.15-4.47c-1.71-1.07-3.52-1.62-5.43-1.62v12.66h-15.1Z"/>
      <path class="cls-11" d="M550.5,115.58v-.52c0-3.81,1.43-6.75,4.29-8.86,3-2.19,6.82-3.69,11.47-4.49,4.65-.81,9.4-1.21,14.25-1.21h1.28c5.34.05,10.27.32,14.79.81,4.52.49,7.98.95,10.36,1.4v19.98c-2.48,0-5.12-.41-7.94-1.24-2.81-.83-5.58-1.73-8.29-2.71-2.05-.73-3.98-1.36-5.78-1.9-1.81-.54-3.12-.84-3.93-.92-.81-.07-1.33-.1-1.57-.1-1.05,0-1.91.23-2.57.65-.77.54-1.15,1.56-1.15,3.08,0,.92.45,1.65,1.36,2.19.9.54,2.11.96,3.61,1.28,1.5.31,3.18.62,5.03.91,3.19.44,6.45,1.12,9.79,2.05,3.33.92,6.19,2.46,8.54,4.61,2.36,2.15,3.68,5.29,3.97,9.44v.52c0,3.76-1.43,6.69-4.28,8.78-3.05,2.25-6.89,3.76-11.5,4.54-4.62.77-9.39,1.17-14.29,1.17h-1.22c-5.39-.06-10.34-.31-14.87-.77s-7.98-.91-10.36-1.36v-19.76c2.43,0,5.04.36,7.83,1.1,2.78.73,5.53,1.54,8.25,2.41,2.05.69,3.97,1.27,5.75,1.76,1.79.49,3.1.77,3.93.84.83.07,1.37.1,1.61.1,1,0,1.81-.19,2.43-.59.81-.48,1.22-1.39,1.22-2.7,0-.93-.45-1.66-1.36-2.2-.9-.53-2.1-.98-3.57-1.31s-3.14-.64-5-.88c-3.14-.44-6.36-1.12-9.65-2.05-3.28-.93-6.11-2.47-8.47-4.61-2.36-2.15-3.68-5.29-3.97-9.44h.01Z"/>
      <path class="cls-11" d="M295.02,206.16h-17.26c-1.9-7.21-3.93-14.03-6.1-20.47-2.17-6.43-4.44-12.62-6.82-18.58h14.83c1.83,4.9,3.12,10.03,3.86,15.34.09.67.15,1.4.18,2.17.06.93.15,1.81.27,2.62.11.82.35,1.5.71,2.03s.93.81,1.73.81,1.34-.26,1.71-.77c.37-.52.6-1.19.71-2.01.1-.81.19-1.67.24-2.56.03-.77.09-1.51.18-2.17.74-5.36,2.04-10.51,3.9-15.45h14.78c-2.34,5.95-4.59,12.14-6.77,18.58-2.17,6.44-4.22,13.26-6.15,20.47h0Z"/>
      <path class="cls-11" d="M310.26,206.16v-39.04h14.73v39.04h-14.73Z"/>
      <path class="cls-11" d="M348.86,206.16c-2.84,0-5.5-.35-7.99-1.04s-4.67-1.81-6.55-3.36-3.35-3.56-4.41-6.03c-1.06-2.48-1.6-5.49-1.6-9.05s.53-6.59,1.6-9.08,2.53-4.5,4.41-6.03,4.07-2.65,6.55-3.36,5.15-1.06,7.99-1.06c3.25,0,6.28.47,9.07,1.41,2.8.94,5.15,2.47,7.06,4.57s3.22,4.86,3.93,8.28l-12.52,1.65c-.85-1.31-2-2.36-3.44-3.15-1.44-.78-2.9-1.18-4.37-1.18-1.36,0-2.62.35-3.77,1.07-1.15.71-2.07,1.66-2.75,2.86-.68,1.19-1.02,2.5-1.02,3.93v.16c0,1.43.34,2.73,1.02,3.93.69,1.19,1.6,2.15,2.75,2.86s2.41,1.06,3.77,1.06c1.27,0,2.53-.29,3.79-.88s2.33-1.38,3.22-2.38h13.45c-.65,3.57-1.93,6.44-3.84,8.63s-4.27,3.77-7.1,4.76c-2.83.98-5.91,1.47-9.25,1.47h0v-.04h0Z"/>
      <path class="cls-11" d="M399.31,206.16h-14.95v-26.83c-2.87.04-5.38.26-7.54.67s-3.97,1.15-5.41,2.23v-15.12h40.91v15.12c-1.51-1.08-3.34-1.82-5.48-2.23-2.15-.41-4.65-.63-7.52-.67v26.83h-.01Z"/>
      <path class="cls-11" d="M435.19,206.16c-2.84,0-5.5-.35-7.99-1.06s-4.67-1.83-6.55-3.36-3.35-3.54-4.41-6.03-1.6-5.51-1.6-9.07.53-6.58,1.6-9.07c1.06-2.49,2.53-4.49,4.41-6.03,1.88-1.52,4.07-2.65,6.55-3.36s5.15-1.06,7.99-1.06,5.5.35,7.99,1.06c2.48.71,4.67,1.83,6.55,3.36s3.35,3.54,4.41,6.03,1.6,5.51,1.6,9.07-.53,6.57-1.6,9.07c-1.06,2.49-2.53,4.5-4.41,6.03s-4.07,2.65-6.55,3.36-5.15,1.06-7.99,1.06ZM433.19,195.12h3.94c1.36,0,2.52-.58,3.48-1.73.96-1.15,1.44-2.55,1.44-4.19s-.48-2.98-1.44-4.14c-.97-1.15-2.12-1.73-3.48-1.73h-3.94c-1.33,0-2.48.58-3.44,1.73s-1.44,2.53-1.44,4.14.48,3.03,1.44,4.19c.96,1.15,2.11,1.73,3.44,1.73Z"/>
      <path class="cls-11" d="M459.02,167.12h30.39c1.95,0,3.73.6,5.35,1.81s2.9,2.84,3.88,4.88c.98,2.04,1.47,4.29,1.47,6.74s-.48,4.7-1.47,6.75c-.98,2.05-2.27,3.68-3.88,4.88-1.61,1.21-3.4,1.81-5.35,1.81,1.83,0,3.57.53,5.19,1.59s2.94,2.5,3.93,4.32,1.48,3.9,1.48,6.25h-17.44c0-2.38-.5-4.49-1.51-6.33-1-1.84-2.31-3.27-3.93-4.3-1.61-1.02-3.35-1.53-5.21-1.53v12.16h-12.91v-39.04h.01ZM471.94,184.25h12.29c.56,0,1.05-.26,1.46-.78.41-.52.62-1.14.62-1.84,0-.74-.21-1.38-.62-1.9-.41-.52-.9-.77-1.46-.77h-12.29v5.3h0Z"/>
      <path class="cls-11" d="M503.77,206.16v-39.04h14.73v39.04h-14.73Z"/>
      <path class="cls-11" d="M550.93,167.12c1.93,7.22,3.97,14.03,6.15,20.44,2.17,6.41,4.43,12.62,6.77,18.6h-17.88c0-1.6-.35-3.03-1.04-4.3-.69-1.26-1.6-2.26-2.7-2.98-1.11-.73-2.3-1.09-3.57-1.09v8.36h-17.88c2.37-5.98,4.64-12.19,6.82-18.6,2.17-6.41,4.21-13.23,6.1-20.44h17.26-.03ZM540.15,189.83h4.35c0-.67.03-1.32.09-1.95.03-.48.04-.94.04-1.4,0-.34-.02-.65-.04-.94-.03-.71-.21-1.28-.53-1.73-.33-.44-.9-.67-1.73-.67s-1.45.23-1.77.67-.49.91-.51,1.4c-.02.48-.02.87-.02,1.17,0,.48.02.98.05,1.51.06.63.09,1.28.09,1.95h-.02,0Z"/>
      <path class="cls-11" d="M284.79,273.56h-19.94v-55.57h52v20.16c-3.49-1.06-7.04-1.82-10.66-2.31-3.61-.48-7.22-.77-10.82-.87-3.61-.1-7.14-.16-10.58-.16v8.65h26.68v15.64h-26.68v14.45h0Z"/>
      <path class="cls-11" d="M353.8,273.56c-4.59,0-8.9-.51-12.91-1.52s-7.55-2.61-10.58-4.78-5.42-5.03-7.13-8.57c-1.72-3.54-2.59-7.83-2.59-12.88s.86-9.36,2.59-12.89c1.72-3.54,4.1-6.39,7.13-8.57,3.03-2.17,6.57-3.76,10.58-4.78s8.32-1.52,12.91-1.52,8.89.5,12.91,1.52c4.02,1.02,7.55,2.61,10.58,4.78,3.03,2.18,5.42,5.03,7.13,8.57,1.72,3.54,2.59,7.83,2.59,12.89s-.86,9.35-2.59,12.88c-1.72,3.54-4.1,6.4-7.13,8.57s-6.57,3.76-10.58,4.78-8.32,1.52-12.91,1.52ZM350.57,257.87h6.38c2.2,0,4.07-.82,5.63-2.46,1.55-1.65,2.33-3.63,2.33-5.95s-.77-4.23-2.33-5.88-3.43-2.46-5.63-2.46h-6.38c-2.15,0-4.01.82-5.57,2.46-1.55,1.65-2.33,3.6-2.33,5.88s.77,4.31,2.33,5.95c1.55,1.65,3.41,2.46,5.57,2.46Z"/>
      <path class="cls-11" d="M392.33,218h49.13c3.15,0,6.03.86,8.65,2.58,2.61,1.72,4.7,4.04,6.28,6.95s2.37,6.11,2.37,9.6-.79,6.69-2.37,9.61c-1.57,2.91-3.67,5.23-6.28,6.95-2.61,1.72-5.48,2.58-8.65,2.58,2.97,0,5.76.75,8.4,2.26,2.63,1.51,4.74,3.56,6.35,6.15,1.6,2.6,2.4,5.56,2.4,8.9h-28.18c0-3.39-.81-6.39-2.44-9.01-1.62-2.62-3.74-4.65-6.35-6.11-2.61-1.45-5.42-2.18-8.43-2.18v17.3h-20.87v-55.57h-.01ZM413.2,242.37h19.87c.9,0,1.69-.37,2.36-1.11.67-.73,1-1.61,1-2.61,0-1.06-.33-1.96-1-2.7-.67-.73-1.46-1.11-2.36-1.11h-19.87v7.54h0Z"/>
      <path class="cls-11" d="M524.05,218.08v22.66c0,4.5-.79,8.74-2.36,12.73-1.58,3.98-3.77,7.48-6.57,10.47-2.8,3.01-6.03,5.37-9.68,7.11s-7.59,2.6-11.79,2.6-8.08-.86-11.76-2.6c-3.69-1.73-6.91-4.1-9.68-7.11-2.77-3-4.96-6.49-6.56-10.47-1.61-3.98-2.4-8.23-2.4-12.73v-22.66h21.37l-2.15,22.27v1.01c0,3.21,1.05,5.95,3.15,8.23,2.29,2.48,4.98,3.73,8.03,3.73s5.69-1.19,7.89-3.57,3.3-5.2,3.3-8.46v-.94l-2.15-22.27h21.37-.02.01Z"/>
      <path class="cls-11" d="M530.42,273.56v-55.57h20.58l1.29,2.31c.85,1.48,1.98,3.33,3.33,5.56,1.36,2.22,2.85,4.44,4.44,6.67,1.61,2.22,3.18,4.1,4.73,5.64,1.55,1.53,2.93,2.31,4.13,2.31s2.58-.77,4.15-2.31c1.58-1.54,3.17-3.42,4.78-5.64,1.6-2.23,3.08-4.44,4.44-6.67s2.48-4.07,3.34-5.56l1.22-2.31h20.66v55.57h-24.25v-18.02c-.85,0-1.71.53-2.54,1.59s-1.65,2.46-2.44,4.2c-.79,1.75-1.57,3.68-2.36,5.8s-1.52,4.27-2.19,6.43h-9.53c-.72-2.17-1.46-4.31-2.23-6.43-.77-2.11-1.56-4.05-2.37-5.8-.81-1.74-1.62-3.15-2.44-4.2-.81-1.06-1.65-1.59-2.51-1.59v18.02h-24.25.02,0Z"/>
    </g>
    <g class="cls-13">
      <g>
        <path class="cls-1" d="M310.3,155.03h-24.08v-37.47c-4.62.05-8.67.36-12.15.94-3.48.57-6.39,1.61-8.72,3.11v-21.11h65.9v21.11c-2.43-1.51-5.37-2.54-8.83-3.11-3.45-.57-7.49-.89-12.11-.94v37.47h-.01Z"/>
        <path class="cls-1" d="M335.47,100.5h48.95c3.15,0,6.02.84,8.61,2.52,2.6,1.69,4.68,3.95,6.25,6.8s2.36,5.98,2.36,9.4-.78,6.55-2.36,9.4c-1.57,2.86-3.66,5.12-6.25,6.8-2.6,1.69-5.47,2.52-8.61,2.52,2.95,0,5.74.73,8.36,2.21,2.61,1.48,4.73,3.48,6.33,6.02,1.6,2.54,2.39,5.44,2.39,8.7h-28.09c0-3.32-.81-6.25-2.43-8.82-1.61-2.56-3.73-4.56-6.32-5.98s-5.4-2.13-8.4-2.13v16.93h-20.8v-54.38h.01ZM356.27,124.35h19.8c.9,0,1.69-.36,2.36-1.09.67-.72,1-1.58,1-2.56,0-1.04-.33-1.92-1-2.65-.67-.72-1.45-1.08-2.36-1.08h-19.8v7.38h0Z"/>
        <path class="cls-1" d="M453.68,100.5c3.1,10.15,6.4,19.71,9.9,28.73s7.14,17.73,10.9,26.14h-28.8c0-2.24-.56-4.26-1.68-6.03-1.11-1.77-2.57-3.18-4.36-4.19-1.79-1.02-3.7-1.53-5.75-1.53v11.76h-28.81c3.82-8.41,7.48-17.13,10.98-26.14,3.5-9.02,6.78-18.59,9.82-28.73h27.8,0ZM436.32,132.41h7.01c0-.94.05-1.86.14-2.74.05-.68.07-1.33.07-1.96,0-.47-.02-.91-.07-1.33-.05-.99-.33-1.81-.85-2.43-.53-.63-1.45-.94-2.79-.94s-2.33.31-2.86.94-.8,1.28-.82,1.96c-.03.68-.04,1.23-.04,1.65,0,.68.02,1.39.07,2.11.1.89.14,1.81.14,2.74h0Z"/>
        <path class="cls-1" d="M478.24,155.03v-54.53h24.16c0,2.34.64,4.87,1.9,7.59,1.26,2.73,2.85,5.29,4.75,7.68,1.91,2.39,3.87,4.37,5.9,5.96,2.02,1.58,3.8,2.37,5.32,2.37v-23.6h24.08v54.53h-24.08c0-3.48-.85-6.54-2.53-9.19-1.69-2.65-3.91-4.73-6.65-6.23-2.74-1.5-5.63-2.26-8.69-2.26v17.68h-24.16Z"/>
        <path class="cls-1" d="M565.94,206.16v-39.04h15.09c0,1.68.4,3.48,1.19,5.44s1.77,3.78,2.97,5.49c1.19,1.71,2.42,3.13,3.69,4.27s2.37,1.7,3.32,1.7v-16.9h15.05v39.04h-15.05c0-2.49-.52-4.69-1.58-6.58s-2.44-3.39-4.15-4.47c-1.71-1.07-3.52-1.62-5.43-1.62v12.66h-15.1Z"/>
        <path class="cls-1" d="M550.49,115.58v-.52c0-3.81,1.43-6.75,4.29-8.86,3-2.19,6.82-3.69,11.47-4.49,4.65-.81,9.4-1.21,14.25-1.21h1.28c5.34.05,10.27.32,14.79.81,4.52.49,7.98.95,10.36,1.4v19.98c-2.48,0-5.12-.41-7.94-1.24-2.81-.83-5.58-1.73-8.29-2.71-2.05-.73-3.98-1.36-5.78-1.9-1.81-.54-3.12-.84-3.93-.92-.81-.07-1.33-.1-1.57-.1-1.05,0-1.91.23-2.57.65-.77.54-1.15,1.56-1.15,3.08,0,.92.45,1.65,1.36,2.19.9.54,2.11.96,3.61,1.28,1.5.31,3.18.62,5.03.91,3.19.44,6.45,1.12,9.79,2.05,3.33.92,6.19,2.46,8.54,4.61,2.36,2.15,3.68,5.29,3.97,9.44v.52c0,3.76-1.43,6.69-4.28,8.78-3.05,2.25-6.89,3.76-11.5,4.54-4.62.77-9.39,1.17-14.29,1.17h-1.22c-5.39-.06-10.34-.31-14.87-.77s-7.98-.91-10.36-1.36v-19.76c2.43,0,5.04.36,7.83,1.1,2.78.73,5.53,1.54,8.25,2.41,2.05.69,3.97,1.27,5.75,1.76,1.79.49,3.1.77,3.93.84.83.07,1.37.1,1.61.1,1,0,1.81-.19,2.43-.59.81-.48,1.22-1.39,1.22-2.7,0-.93-.45-1.66-1.36-2.2-.9-.53-2.1-.98-3.57-1.31s-3.14-.64-5-.88c-3.14-.44-6.36-1.12-9.65-2.05-3.28-.93-6.11-2.47-8.47-4.61-2.36-2.15-3.68-5.29-3.97-9.44h.01Z"/>
        <path class="cls-1" d="M295.01,206.16h-17.26c-1.9-7.21-3.93-14.03-6.1-20.47-2.17-6.43-4.44-12.62-6.82-18.58h14.83c1.83,4.9,3.12,10.03,3.86,15.34.09.67.15,1.4.18,2.17.06.93.15,1.81.27,2.62.11.82.35,1.5.71,2.03s.93.81,1.73.81,1.34-.26,1.71-.77c.37-.52.6-1.19.71-2.01.1-.81.19-1.67.24-2.56.03-.77.09-1.51.18-2.17.74-5.36,2.04-10.51,3.9-15.45h14.78c-2.34,5.95-4.59,12.14-6.77,18.58-2.17,6.44-4.22,13.26-6.15,20.47h0Z"/>
        <path class="cls-1" d="M310.26,206.16v-39.04h14.73v39.04h-14.73Z"/>
        <path class="cls-1" d="M348.85,206.16c-2.84,0-5.5-.35-7.99-1.04s-4.67-1.81-6.55-3.36-3.35-3.56-4.41-6.03c-1.06-2.48-1.6-5.49-1.6-9.05s.53-6.59,1.6-9.08,2.53-4.5,4.41-6.03,4.07-2.65,6.55-3.36,5.15-1.06,7.99-1.06c3.25,0,6.28.47,9.07,1.41,2.8.94,5.15,2.47,7.06,4.57s3.22,4.86,3.93,8.28l-12.52,1.65c-.85-1.31-2-2.36-3.44-3.15-1.44-.78-2.9-1.18-4.37-1.18-1.36,0-2.62.35-3.77,1.07-1.15.71-2.07,1.66-2.75,2.86-.68,1.19-1.02,2.5-1.02,3.93v.16c0,1.43.34,2.73,1.02,3.93.69,1.19,1.6,2.15,2.75,2.86s2.41,1.06,3.77,1.06c1.27,0,2.53-.29,3.79-.88s2.33-1.38,3.22-2.38h13.45c-.65,3.57-1.93,6.44-3.84,8.63s-4.27,3.77-7.1,4.76c-2.83.98-5.91,1.47-9.25,1.47h0v-.04h0Z"/>
        <path class="cls-1" d="M399.3,206.16h-14.95v-26.83c-2.87.04-5.38.26-7.54.67s-3.97,1.15-5.41,2.23v-15.12h40.91v15.12c-1.51-1.08-3.34-1.82-5.48-2.23-2.15-.41-4.65-.63-7.52-.67v26.83h-.01Z"/>
        <path class="cls-1" d="M435.17,206.16c-2.84,0-5.5-.35-7.99-1.06s-4.67-1.83-6.55-3.36-3.35-3.54-4.41-6.03-1.6-5.51-1.6-9.07.53-6.58,1.6-9.07c1.06-2.49,2.53-4.49,4.41-6.03,1.88-1.52,4.07-2.65,6.55-3.36s5.15-1.06,7.99-1.06,5.5.35,7.99,1.06c2.48.71,4.67,1.83,6.55,3.36s3.35,3.54,4.41,6.03,1.6,5.51,1.6,9.07-.53,6.57-1.6,9.07c-1.06,2.49-2.53,4.5-4.41,6.03s-4.07,2.65-6.55,3.36-5.15,1.06-7.99,1.06ZM433.17,195.12h3.94c1.36,0,2.52-.58,3.48-1.73.96-1.15,1.44-2.55,1.44-4.19s-.48-2.98-1.44-4.14c-.97-1.15-2.12-1.73-3.48-1.73h-3.94c-1.33,0-2.48.58-3.44,1.73s-1.44,2.53-1.44,4.14.48,3.03,1.44,4.19c.96,1.15,2.11,1.73,3.44,1.73Z"/>
        <path class="cls-1" d="M459.01,167.12h30.39c1.95,0,3.73.6,5.35,1.81s2.9,2.84,3.88,4.88c.98,2.04,1.47,4.29,1.47,6.74s-.48,4.7-1.47,6.75c-.98,2.05-2.27,3.68-3.88,4.88-1.61,1.21-3.4,1.81-5.35,1.81,1.83,0,3.57.53,5.19,1.59s2.94,2.5,3.93,4.32,1.48,3.9,1.48,6.25h-17.44c0-2.38-.5-4.49-1.51-6.33-1-1.84-2.31-3.27-3.93-4.3-1.61-1.02-3.35-1.53-5.21-1.53v12.16h-12.91v-39.04h.01ZM471.93,184.25h12.29c.56,0,1.05-.26,1.46-.78.41-.52.62-1.14.62-1.84,0-.74-.21-1.38-.62-1.9-.41-.52-.9-.77-1.46-.77h-12.29v5.3h0Z"/>
        <path class="cls-1" d="M503.76,206.16v-39.04h14.73v39.04h-14.73Z"/>
        <path class="cls-1" d="M550.93,167.12c1.93,7.22,3.97,14.03,6.15,20.44,2.17,6.41,4.43,12.62,6.77,18.6h-17.88c0-1.6-.35-3.03-1.04-4.3-.69-1.26-1.6-2.26-2.7-2.98-1.11-.73-2.3-1.09-3.57-1.09v8.36h-17.88c2.37-5.98,4.64-12.19,6.82-18.6,2.17-6.41,4.21-13.23,6.1-20.44h17.26-.03ZM540.14,189.83h4.35c0-.67.03-1.32.09-1.95.03-.48.04-.94.04-1.4,0-.34-.02-.65-.04-.94-.03-.71-.21-1.28-.53-1.73-.33-.44-.9-.67-1.73-.67s-1.45.23-1.77.67-.49.91-.51,1.4c-.02.48-.02.87-.02,1.17,0,.48.02.98.05,1.51.06.63.09,1.28.09,1.95h-.02,0Z"/>
        <path class="cls-1" d="M284.78,273.56h-19.94v-55.57h52v20.16c-3.49-1.06-7.04-1.82-10.66-2.31-3.61-.48-7.22-.77-10.82-.87-3.61-.1-7.14-.16-10.58-.16v8.65h26.68v15.64h-26.68v14.45h0Z"/>
        <path class="cls-1" d="M353.79,273.56c-4.59,0-8.9-.51-12.91-1.52s-7.55-2.61-10.58-4.78-5.42-5.03-7.13-8.57c-1.72-3.54-2.59-7.83-2.59-12.88s.86-9.36,2.59-12.89c1.72-3.54,4.1-6.39,7.13-8.57,3.03-2.17,6.57-3.76,10.58-4.78s8.32-1.52,12.91-1.52,8.89.5,12.91,1.52c4.02,1.02,7.55,2.61,10.58,4.78,3.03,2.18,5.42,5.03,7.13,8.57,1.72,3.54,2.59,7.83,2.59,12.89s-.86,9.35-2.59,12.88c-1.72,3.54-4.1,6.4-7.13,8.57s-6.57,3.76-10.58,4.78-8.32,1.52-12.91,1.52ZM350.56,257.87h6.38c2.2,0,4.07-.82,5.63-2.46,1.55-1.65,2.33-3.63,2.33-5.95s-.77-4.23-2.33-5.88-3.43-2.46-5.63-2.46h-6.38c-2.15,0-4.01.82-5.57,2.46-1.55,1.65-2.33,3.6-2.33,5.88s.77,4.31,2.33,5.95c1.55,1.65,3.41,2.46,5.57,2.46Z"/>
        <path class="cls-1" d="M392.32,218h49.13c3.15,0,6.03.86,8.65,2.58,2.61,1.72,4.7,4.04,6.28,6.95s2.37,6.11,2.37,9.6-.79,6.69-2.37,9.61c-1.57,2.91-3.67,5.23-6.28,6.95-2.61,1.72-5.48,2.58-8.65,2.58,2.97,0,5.76.75,8.4,2.26,2.63,1.51,4.74,3.56,6.35,6.15,1.6,2.6,2.4,5.56,2.4,8.9h-28.18c0-3.39-.81-6.39-2.44-9.01-1.62-2.62-3.74-4.65-6.35-6.11-2.61-1.45-5.42-2.18-8.43-2.18v17.3h-20.87v-55.57h-.01ZM413.19,242.37h19.87c.9,0,1.69-.37,2.36-1.11.67-.73,1-1.61,1-2.61,0-1.06-.33-1.96-1-2.7-.67-.73-1.46-1.11-2.36-1.11h-19.87v7.54h0Z"/>
        <path class="cls-1" d="M524.03,218.08v22.66c0,4.5-.79,8.74-2.36,12.73-1.58,3.98-3.77,7.48-6.57,10.47-2.8,3.01-6.03,5.37-9.68,7.11s-7.59,2.6-11.79,2.6-8.08-.86-11.76-2.6c-3.69-1.73-6.91-4.1-9.68-7.11-2.77-3-4.96-6.49-6.56-10.47-1.61-3.98-2.4-8.23-2.4-12.73v-22.66h21.37l-2.15,22.27v1.01c0,3.21,1.05,5.95,3.15,8.23,2.29,2.48,4.98,3.73,8.03,3.73s5.69-1.19,7.89-3.57,3.3-5.2,3.3-8.46v-.94l-2.15-22.27h21.37-.02.01Z"/>
        <path class="cls-1" d="M530.41,273.56v-55.57h20.58l1.29,2.31c.85,1.48,1.98,3.33,3.33,5.56,1.36,2.22,2.85,4.44,4.44,6.67,1.61,2.22,3.18,4.1,4.73,5.64,1.55,1.53,2.93,2.31,4.13,2.31s2.58-.77,4.15-2.31c1.58-1.54,3.17-3.42,4.78-5.64,1.6-2.23,3.08-4.44,4.44-6.67s2.48-4.07,3.34-5.56l1.22-2.31h20.66v55.57h-24.25v-18.02c-.85,0-1.71.53-2.54,1.59s-1.65,2.46-2.44,4.2c-.79,1.75-1.57,3.68-2.36,5.8s-1.52,4.27-2.19,6.43h-9.53c-.72-2.17-1.46-4.31-2.23-6.43-.77-2.11-1.56-4.05-2.37-5.8-.81-1.74-1.62-3.15-2.44-4.2-.81-1.06-1.65-1.59-2.51-1.59v18.02h-24.25.02,0Z"/>
      </g>
    </g>
    <g class="cls-7">
      <g>
        <path class="cls-2" d="M310.31,155.02h-24.08v-37.47c-4.62.05-8.67.36-12.15.94-3.48.57-6.39,1.61-8.72,3.11v-21.11h65.9v21.11c-2.43-1.51-5.37-2.54-8.83-3.11-3.45-.57-7.49-.89-12.11-.94v37.47h-.01Z"/>
        <path class="cls-2" d="M335.48,100.49h48.95c3.15,0,6.02.84,8.61,2.52s4.68,3.95,6.25,6.8,2.36,5.98,2.36,9.4-.78,6.55-2.36,9.4c-1.57,2.86-3.66,5.12-6.25,6.8-2.6,1.69-5.47,2.52-8.61,2.52,2.95,0,5.74.73,8.36,2.21,2.61,1.48,4.73,3.48,6.33,6.02,1.6,2.54,2.39,5.44,2.39,8.7h-28.09c0-3.32-.81-6.25-2.43-8.82-1.61-2.56-3.73-4.56-6.32-5.98s-5.4-2.13-8.4-2.13v16.93h-20.8v-54.38h.01ZM356.28,124.34h19.8c.9,0,1.69-.36,2.36-1.09.67-.72,1-1.58,1-2.56,0-1.04-.33-1.92-1-2.65-.67-.72-1.45-1.08-2.36-1.08h-19.8v7.38h0Z"/>
        <path class="cls-2" d="M453.68,100.49c3.1,10.15,6.4,19.71,9.9,28.73s7.14,17.73,10.9,26.14h-28.8c0-2.24-.56-4.26-1.68-6.03-1.11-1.77-2.57-3.18-4.36-4.19-1.79-1.02-3.7-1.53-5.75-1.53v11.76h-28.81c3.82-8.41,7.48-17.13,10.98-26.14,3.5-9.02,6.78-18.59,9.82-28.73h27.8,0ZM436.32,132.4h7.01c0-.94.05-1.86.14-2.74.05-.68.07-1.33.07-1.96,0-.47-.02-.91-.07-1.33-.05-.99-.33-1.81-.85-2.43-.53-.63-1.45-.94-2.79-.94s-2.33.31-2.86.94-.8,1.28-.82,1.96c-.03.68-.04,1.23-.04,1.65,0,.68.02,1.39.07,2.11.1.89.14,1.81.14,2.74h0Z"/>
        <path class="cls-2" d="M478.24,155.02v-54.53h24.16c0,2.34.64,4.87,1.9,7.59,1.26,2.73,2.85,5.29,4.75,7.68,1.91,2.39,3.87,4.37,5.9,5.96,2.02,1.58,3.8,2.37,5.32,2.37v-23.6h24.08v54.53h-24.08c0-3.48-.85-6.54-2.53-9.19-1.69-2.65-3.91-4.73-6.65-6.23-2.74-1.5-5.63-2.26-8.69-2.26v17.68h-24.16Z"/>
        <path class="cls-2" d="M565.94,206.16v-39.04h15.09c0,1.68.4,3.48,1.19,5.44s1.77,3.78,2.97,5.49c1.19,1.71,2.42,3.13,3.69,4.27s2.37,1.7,3.32,1.7v-16.9h15.05v39.04h-15.05c0-2.49-.52-4.69-1.58-6.58s-2.44-3.39-4.15-4.47c-1.71-1.07-3.52-1.62-5.43-1.62v12.66h-15.1Z"/>
        <path class="cls-2" d="M550.49,115.58v-.52c0-3.81,1.43-6.75,4.29-8.86,3-2.19,6.82-3.69,11.47-4.49,4.65-.81,9.4-1.21,14.25-1.21h1.28c5.34.05,10.27.32,14.79.81,4.52.49,7.98.95,10.36,1.4v19.98c-2.48,0-5.12-.41-7.94-1.24-2.81-.83-5.58-1.73-8.29-2.71-2.05-.73-3.98-1.36-5.78-1.9-1.81-.54-3.12-.84-3.93-.92-.81-.07-1.33-.1-1.57-.1-1.05,0-1.91.23-2.57.65-.77.54-1.15,1.56-1.15,3.08,0,.92.45,1.65,1.36,2.19.9.54,2.11.96,3.61,1.28,1.5.31,3.18.62,5.03.91,3.19.44,6.45,1.12,9.79,2.05,3.33.92,6.19,2.46,8.54,4.61,2.36,2.15,3.68,5.29,3.97,9.44v.52c0,3.76-1.43,6.69-4.28,8.78-3.05,2.25-6.89,3.76-11.5,4.54-4.62.77-9.39,1.17-14.29,1.17h-1.22c-5.39-.06-10.34-.31-14.87-.77s-7.98-.91-10.36-1.36v-19.76c2.43,0,5.04.36,7.83,1.1,2.78.73,5.53,1.54,8.25,2.41,2.05.69,3.97,1.27,5.75,1.76,1.79.49,3.1.77,3.93.84.83.07,1.37.1,1.61.1,1,0,1.81-.19,2.43-.59.81-.48,1.22-1.39,1.22-2.7,0-.93-.45-1.66-1.36-2.2-.9-.53-2.1-.98-3.57-1.31s-3.14-.64-5-.88c-3.14-.44-6.36-1.12-9.65-2.05-3.28-.93-6.11-2.47-8.47-4.61-2.36-2.15-3.68-5.29-3.97-9.44h.01Z"/>
        <path class="cls-2" d="M295.01,206.16h-17.26c-1.9-7.21-3.93-14.03-6.1-20.47-2.17-6.43-4.44-12.62-6.82-18.58h14.83c1.83,4.9,3.12,10.03,3.86,15.34.09.67.15,1.4.18,2.17.06.93.15,1.81.27,2.62.11.82.35,1.5.71,2.03s.93.81,1.73.81,1.34-.26,1.71-.77c.37-.52.6-1.19.71-2.01.1-.81.19-1.67.24-2.56.03-.77.09-1.51.18-2.17.74-5.36,2.04-10.51,3.9-15.45h14.78c-2.34,5.95-4.59,12.14-6.77,18.58-2.17,6.44-4.22,13.26-6.15,20.47h0Z"/>
        <path class="cls-2" d="M310.26,206.16v-39.04h14.73v39.04h-14.73Z"/>
        <path class="cls-2" d="M348.85,206.16c-2.84,0-5.5-.35-7.99-1.04s-4.67-1.81-6.55-3.36-3.35-3.56-4.41-6.03c-1.06-2.48-1.6-5.49-1.6-9.05s.53-6.59,1.6-9.08,2.53-4.5,4.41-6.03,4.07-2.65,6.55-3.36,5.15-1.06,7.99-1.06c3.25,0,6.28.47,9.07,1.41,2.8.94,5.15,2.47,7.06,4.57s3.22,4.86,3.93,8.28l-12.52,1.65c-.85-1.31-2-2.36-3.44-3.15-1.44-.78-2.9-1.18-4.37-1.18-1.36,0-2.62.35-3.77,1.07-1.15.71-2.07,1.66-2.75,2.86-.68,1.19-1.02,2.5-1.02,3.93v.16c0,1.43.34,2.73,1.02,3.93.69,1.19,1.6,2.15,2.75,2.86s2.41,1.06,3.77,1.06c1.27,0,2.53-.29,3.79-.88s2.33-1.38,3.22-2.38h13.45c-.65,3.57-1.93,6.44-3.84,8.63s-4.27,3.77-7.1,4.76c-2.83.98-5.91,1.47-9.25,1.47h0v-.04h0Z"/>
        <path class="cls-2" d="M399.3,206.16h-14.95v-26.83c-2.87.04-5.38.26-7.54.67s-3.97,1.15-5.41,2.23v-15.12h40.91v15.12c-1.51-1.08-3.34-1.82-5.48-2.23-2.15-.41-4.65-.63-7.52-.67v26.83h-.01Z"/>
        <path class="cls-2" d="M435.18,206.16c-2.84,0-5.5-.35-7.99-1.06-2.48-.71-4.67-1.83-6.55-3.36s-3.35-3.54-4.41-6.03-1.6-5.51-1.6-9.07.53-6.58,1.6-9.07c1.06-2.49,2.53-4.49,4.41-6.03,1.88-1.52,4.07-2.65,6.55-3.36s5.15-1.06,7.99-1.06,5.5.35,7.99,1.06c2.48.71,4.67,1.83,6.55,3.36s3.35,3.54,4.41,6.03,1.6,5.51,1.6,9.07-.53,6.57-1.6,9.07c-1.06,2.49-2.53,4.5-4.41,6.03s-4.07,2.65-6.55,3.36-5.15,1.06-7.99,1.06h0ZM433.18,195.12h3.94c1.36,0,2.52-.58,3.48-1.73.96-1.15,1.44-2.55,1.44-4.19s-.48-2.98-1.44-4.14c-.97-1.15-2.12-1.73-3.48-1.73h-3.94c-1.33,0-2.48.58-3.44,1.73s-1.44,2.53-1.44,4.14.48,3.03,1.44,4.19c.96,1.15,2.11,1.73,3.44,1.73Z"/>
        <path class="cls-2" d="M459.01,167.12h30.39c1.95,0,3.73.6,5.35,1.81s2.9,2.84,3.88,4.88c.98,2.04,1.47,4.29,1.47,6.74s-.48,4.7-1.47,6.75c-.98,2.05-2.27,3.68-3.88,4.88-1.61,1.21-3.4,1.81-5.35,1.81,1.83,0,3.57.53,5.19,1.59s2.94,2.5,3.93,4.32,1.48,3.9,1.48,6.25h-17.44c0-2.38-.5-4.49-1.51-6.33-1-1.84-2.31-3.27-3.93-4.3-1.61-1.02-3.35-1.53-5.21-1.53v12.16h-12.91v-39.04h.01ZM471.93,184.25h12.29c.56,0,1.05-.26,1.46-.78.41-.52.62-1.14.62-1.84,0-.74-.21-1.38-.62-1.9-.41-.52-.9-.77-1.46-.77h-12.29v5.3h0Z"/>
        <path class="cls-2" d="M503.76,206.16v-39.04h14.73v39.04h-14.73Z"/>
        <path class="cls-2" d="M550.93,167.12c1.93,7.22,3.97,14.03,6.15,20.44,2.17,6.41,4.43,12.62,6.77,18.6h-17.88c0-1.6-.35-3.03-1.04-4.3-.69-1.26-1.6-2.26-2.7-2.98-1.11-.73-2.3-1.09-3.57-1.09v8.36h-17.88c2.37-5.98,4.64-12.19,6.82-18.6,2.17-6.41,4.21-13.23,6.1-20.44h17.26-.03ZM540.14,189.83h4.35c0-.67.03-1.32.09-1.95.03-.48.04-.94.04-1.4,0-.34-.02-.65-.04-.94-.03-.71-.21-1.28-.53-1.73-.33-.44-.9-.67-1.73-.67s-1.45.23-1.77.67-.49.91-.51,1.4c-.02.48-.02.87-.02,1.17,0,.48.02.98.05,1.51.06.63.09,1.28.09,1.95h-.02,0Z"/>
        <path class="cls-2" d="M284.78,273.56h-19.94v-55.57h52v20.16c-3.49-1.06-7.04-1.82-10.66-2.31-3.61-.48-7.22-.77-10.82-.87-3.61-.1-7.14-.16-10.58-.16v8.65h26.68v15.64h-26.68v14.45h0Z"/>
        <path class="cls-2" d="M353.79,273.56c-4.59,0-8.9-.51-12.91-1.52-4.02-1.02-7.55-2.61-10.58-4.78s-5.42-5.03-7.13-8.57c-1.72-3.54-2.59-7.83-2.59-12.88s.86-9.36,2.59-12.89c1.72-3.54,4.1-6.39,7.13-8.57,3.03-2.17,6.57-3.76,10.58-4.78s8.32-1.52,12.91-1.52,8.89.5,12.91,1.52c4.02,1.02,7.55,2.61,10.58,4.78,3.03,2.18,5.42,5.03,7.13,8.57,1.72,3.54,2.59,7.83,2.59,12.89s-.86,9.35-2.59,12.88c-1.72,3.54-4.1,6.4-7.13,8.57s-6.57,3.76-10.58,4.78-8.32,1.52-12.91,1.52ZM350.56,257.87h6.38c2.2,0,4.07-.82,5.63-2.46,1.55-1.65,2.33-3.63,2.33-5.95s-.77-4.23-2.33-5.88-3.43-2.46-5.63-2.46h-6.38c-2.15,0-4.01.82-5.57,2.46-1.55,1.65-2.33,3.6-2.33,5.88s.77,4.31,2.33,5.95c1.55,1.65,3.41,2.46,5.57,2.46Z"/>
        <path class="cls-2" d="M392.32,217.99h49.13c3.15,0,6.03.86,8.65,2.58,2.61,1.72,4.7,4.04,6.28,6.95s2.37,6.11,2.37,9.6-.79,6.69-2.37,9.61c-1.57,2.91-3.67,5.23-6.28,6.95-2.61,1.72-5.48,2.58-8.65,2.58,2.97,0,5.76.75,8.4,2.26,2.63,1.51,4.74,3.56,6.35,6.15,1.6,2.6,2.4,5.56,2.4,8.9h-28.18c0-3.39-.81-6.39-2.44-9.01-1.62-2.62-3.74-4.65-6.35-6.11-2.61-1.45-5.42-2.18-8.43-2.18v17.3h-20.87v-55.57h-.01ZM413.19,242.36h19.87c.9,0,1.69-.37,2.36-1.11.67-.73,1-1.61,1-2.61,0-1.06-.33-1.96-1-2.7-.67-.73-1.46-1.11-2.36-1.11h-19.87v7.54h0Z"/>
        <path class="cls-2" d="M524.04,218.08v22.66c0,4.5-.79,8.74-2.36,12.73-1.58,3.98-3.77,7.48-6.57,10.47-2.8,3.01-6.03,5.37-9.68,7.11s-7.59,2.6-11.79,2.6-8.08-.86-11.76-2.6c-3.69-1.73-6.91-4.1-9.68-7.11-2.77-3-4.96-6.49-6.56-10.47-1.61-3.98-2.4-8.23-2.4-12.73v-22.66h21.37l-2.15,22.27v1.01c0,3.21,1.05,5.95,3.15,8.23,2.29,2.48,4.98,3.73,8.03,3.73s5.69-1.19,7.89-3.57,3.3-5.2,3.3-8.46v-.94l-2.15-22.27h21.37-.02.01Z"/>
        <path class="cls-2" d="M530.41,273.56v-55.57h20.58l1.29,2.31c.85,1.48,1.98,3.33,3.33,5.56,1.36,2.22,2.85,4.44,4.44,6.67,1.61,2.22,3.18,4.1,4.73,5.64,1.55,1.53,2.93,2.31,4.13,2.31s2.58-.77,4.15-2.31c1.58-1.54,3.17-3.42,4.78-5.64,1.6-2.23,3.08-4.44,4.44-6.67s2.48-4.07,3.34-5.56l1.22-2.31h20.66v55.57h-24.25v-18.02c-.85,0-1.71.53-2.54,1.59s-1.65,2.46-2.44,4.2c-.79,1.75-1.57,3.68-2.36,5.8s-1.52,4.27-2.19,6.43h-9.53c-.72-2.17-1.46-4.31-2.23-6.43-.77-2.11-1.56-4.05-2.37-5.8-.81-1.74-1.62-3.15-2.44-4.2-.81-1.06-1.65-1.59-2.51-1.59v18.02h-24.25.02,0Z"/>
      </g>
    </g>
  </g>
  <g>
    <path class="cls-3" d="M48.52,141l17.35-4.54v-12.7l3.58-1.16,2.59-.84v-26.19l-4.59-4.3-1.63-1.53v-24.71l3.58-1.16,6.1-1.97c3.19-8.71,8.65-16.37,15.93-22.3,6.86-5.59,14.93-9.28,23.56-10.84V9.89h18.61v18.89c8.65,1.56,16.74,5.27,23.61,10.88,7.29,5.95,12.75,13.64,15.92,22.38l5.72,1.85,3.58,1.16v24.71l-1.63,1.53-4.5,4.22v26.27l2.59.84,3.58,1.16v12.54l17.96,4.7,3.86,1.01v27.86l-2.04,1.55-6.64,5.04v111.52H53.29v-111.52l-6.64-5.04-2.04-1.55v-27.86l3.86-1.01.05-.02h0Z"/>
    <g>
      <rect class="cls-6" x="120.19" y="14.27" width="8.25" height="21.19"/>
      <ellipse class="cls-12" cx="124.32" cy="78.84" rx="46.75" ry="46.51"/>
      <rect class="cls-2" x="79.68" y="74.16" width="87.42" height="57.18"/>
      <path class="cls-6" d="M99.72,70.43v-1.15h48.85v1.15h22.57v59.05h-93.91v-59.05h22.49ZM82.65,75.82v26.52l17.07-5.51v-21.01h-17.07ZM143.15,119.13v-18.41l-.67-.22h-36.58l-.75.24v18.38h38.01-.01ZM105.14,75.82v19.29h38.01v-19.29h-38.01ZM148.57,75.82v20.98l17.15,5.54v-26.52h-17.15ZM165.72,108.01l-17.15-5.54v21.61h17.15v-16.08h0ZM99.72,124.09v-21.58l-17.07,5.51v16.08h17.07Z"/>
      <g>
        <polygon class="cls-10" points="58.52 151.55 59.84 150.23 178.04 150.23 190.47 162.61 190.47 288.24 58.52 288.24 58.52 151.55"/>
        <polygon class="cls-8" points="58.52 223.96 58.52 151.55 59.84 150.23 131.18 150.23 190.47 209.23 190.47 288.24 123.15 288.24 58.52 223.96"/>
        <polygon class="cls-2" points="58.52 176.68 58.52 151.55 59.84 150.23 85.43 150.23 190.47 254.75 190.47 288.24 170.9 288.24 58.52 176.68"/>
      </g>
      <polygon class="cls-6" points="105.47 115.62 105.47 115.62 142.91 115.62 142.91 115.62 177.32 126.72 177.32 145.45 171.14 151.24 171.14 143.46 142.91 134.35 105.47 134.35 77.23 143.46 77.23 151.24 71.06 145.45 71.06 126.72 105.47 115.62"/>
      <polygon class="cls-12" points="98.19 132.55 98.19 132.55 150.8 132.55 150.8 132.55 199.15 145.2 199.15 166.53 190.47 173.12 190.47 164.26 150.8 153.88 98.19 153.88 58.52 164.26 58.52 173.12 49.84 166.53 49.84 145.2 98.19 132.55"/>
      <path class="cls-14" d="M124.11,175.85h0c-7.99,0-14.48,6.49-14.48,14.48v49.3h28.95v-49.3c0-7.99-6.49-14.48-14.48-14.48h.01Z"/>
      <polygon class="cls-6" points="105.43 56.9 105.43 56.9 142.87 56.9 142.87 56.9 177.28 68.01 177.28 86.74 171.1 92.52 171.1 84.75 142.87 75.63 105.43 75.63 77.19 84.75 77.19 92.52 71.02 86.74 71.02 68.01 105.43 56.9"/>
      <g>
        <rect class="cls-2" x="115.87" y="89.34" width="15.75" height="16.05" rx="2.92" ry="2.92"/>
        <path class="cls-6" d="M123.44,86.43c6.32,0,11.44,5.1,11.44,11.38s-5.12,11.38-11.44,11.38-11.44-5.1-11.44-11.38,5.12-11.38,11.44-11.38ZM123.44,104.9l5.95-7.09-5.95-7.09-5.95,7.09,5.95,7.09Z"/>
      </g>
    </g>
  </g>
</svg>